<svg width="15" height="16" viewBox="0 0 15 16" fill="none" xmlns="http://www.w3.org/2000/svg">
<path d="M7.50094 5.3654C6.13903 5.3654 5.0276 6.47682 5.0276 7.83874C5.0276 9.20065 6.13903 10.3121 7.50094 10.3121C8.86286 10.3121 9.97428 9.20065 9.97428 7.83874C9.97428 6.47682 8.86286 5.3654 7.50094 5.3654ZM14.9191 7.83874C14.9191 6.81452 14.9284 5.79958 14.8709 4.77721C14.8133 3.58971 14.5424 2.53581 13.6741 1.66745C12.8039 0.797231 11.7518 0.528189 10.5643 0.470669C9.5401 0.41315 8.52516 0.422427 7.5028 0.422427C6.47858 0.422427 5.46364 0.41315 4.44127 0.470669C3.25377 0.528189 2.19987 0.799087 1.33151 1.66745C0.461294 2.53766 0.192251 3.58971 0.134732 4.77721C0.077212 5.80143 0.0864894 6.81637 0.0864894 7.83874C0.0864894 8.8611 0.077212 9.8779 0.134732 10.9003C0.192251 12.0878 0.46315 13.1417 1.33151 14.01C2.20172 14.8802 3.25377 15.1493 4.44127 15.2068C5.46549 15.2643 6.48043 15.255 7.5028 15.255C8.52702 15.255 9.54196 15.2643 10.5643 15.2068C11.7518 15.1493 12.8057 14.8784 13.6741 14.01C14.5443 13.1398 14.8133 12.0878 14.8709 10.9003C14.9302 9.8779 14.9191 8.86295 14.9191 7.83874ZM7.50094 11.6443C5.39499 11.6443 3.69538 9.94469 3.69538 7.83874C3.69538 5.73278 5.39499 4.03317 7.50094 4.03317C9.6069 4.03317 11.3065 5.73278 11.3065 7.83874C11.3065 9.94469 9.6069 11.6443 7.50094 11.6443ZM11.4624 4.76608C10.9707 4.76608 10.5736 4.36901 10.5736 3.87731C10.5736 3.38561 10.9707 2.98854 11.4624 2.98854C11.9541 2.98854 12.3511 3.38561 12.3511 3.87731C12.3513 3.99407 12.3284 4.1097 12.2838 4.2176C12.2392 4.3255 12.1737 4.42353 12.0912 4.50609C12.0086 4.58865 11.9106 4.65411 11.8027 4.69872C11.6948 4.74334 11.5791 4.76623 11.4624 4.76608Z" fill="#010915"/>
</svg>
