<svg width="15" height="16" viewBox="0 0 15 16" fill="none" xmlns="http://www.w3.org/2000/svg">
<path d="M7.49997 5.36442C6.13805 5.36442 5.02663 6.47584 5.02663 7.83776C5.02663 9.19967 6.13805 10.3111 7.49997 10.3111C8.86188 10.3111 9.97331 9.19967 9.97331 7.83776C9.97331 6.47584 8.86188 5.36442 7.49997 5.36442ZM14.9181 7.83776C14.9181 6.81354 14.9274 5.7986 14.8699 4.77624C14.8124 3.58874 14.5415 2.53483 13.6731 1.66647C12.8029 0.796255 11.7508 0.527212 10.5633 0.469692C9.53913 0.412173 8.52418 0.42145 7.50182 0.42145C6.4776 0.42145 5.46266 0.412173 4.4403 0.469692C3.2528 0.527212 2.19889 0.79811 1.33053 1.66647C0.460318 2.53668 0.191275 3.58874 0.133755 4.77624C0.0762355 5.80045 0.0855128 6.8154 0.0855128 7.83776C0.0855128 8.86012 0.0762355 9.87692 0.133755 10.8993C0.191275 12.0868 0.462173 13.1407 1.33053 14.009C2.20075 14.8793 3.2528 15.1483 4.4403 15.2058C5.46452 15.2633 6.47946 15.2541 7.50182 15.2541C8.52604 15.2541 9.54098 15.2633 10.5633 15.2058C11.7508 15.1483 12.8048 14.8774 13.6731 14.009C14.5433 13.1388 14.8124 12.0868 14.8699 10.8993C14.9293 9.87692 14.9181 8.86198 14.9181 7.83776ZM7.49997 11.6433C5.39401 11.6433 3.6944 9.94372 3.6944 7.83776C3.6944 5.7318 5.39401 4.03219 7.49997 4.03219C9.60592 4.03219 11.3055 5.7318 11.3055 7.83776C11.3055 9.94372 9.60592 11.6433 7.49997 11.6433ZM11.4614 4.7651C10.9697 4.7651 10.5726 4.36803 10.5726 3.87633C10.5726 3.38463 10.9697 2.98756 11.4614 2.98756C11.9531 2.98756 12.3502 3.38463 12.3502 3.87633C12.3503 3.99309 12.3274 4.10873 12.2828 4.21662C12.2382 4.32452 12.1727 4.42256 12.0902 4.50512C12.0076 4.58767 11.9096 4.65313 11.8017 4.69775C11.6938 4.74236 11.5781 4.76525 11.4614 4.7651Z" fill="white"/>
</svg>

