<svg width="16" height="17" viewBox="0 0 16 17" fill="none" xmlns="http://www.w3.org/2000/svg">
<path d="M3.65075 16.0879H0.385438V5.57252H3.65075V16.0879ZM2.01612 4.13814C0.972125 4.13814 0.125 3.27302 0.125 2.22902C0.125 1.72746 0.324243 1.24644 0.678898 0.891788C1.03355 0.537134 1.51457 0.337891 2.01612 0.337891C2.51768 0.337891 2.9987 0.537134 3.35335 0.891788C3.70801 1.24644 3.90725 1.72746 3.90725 2.22902C3.90725 3.27302 3.06012 4.13814 2.01612 4.13814ZM15.8716 16.0879H12.6136V10.9691C12.6136 9.74908 12.5889 8.18477 10.916 8.18477C9.21838 8.18477 8.95794 9.51002 8.95794 10.8814V16.0879H5.696V5.57252H8.82744V7.00689H8.873C9.30894 6.18058 10.3738 5.3087 11.9623 5.3087C15.2669 5.3087 15.8744 7.48502 15.8744 10.3116V16.0879H15.8716Z" fill="white"/>
</svg>
