<svg width="24" height="24" viewBox="0 0 24 24" fill="none" xmlns="http://www.w3.org/2000/svg">
<path d="M11.9999 8.09493C9.8495 8.09493 8.09462 9.84981 8.09462 12.0002C8.09462 14.1506 9.8495 15.9055 11.9999 15.9055C14.1503 15.9055 15.9052 14.1506 15.9052 12.0002C15.9052 9.84981 14.1503 8.09493 11.9999 8.09493ZM23.7128 12.0002C23.7128 10.383 23.7274 8.78047 23.6366 7.16621C23.5458 5.29121 23.1181 3.62715 21.747 2.25606C20.3729 0.882036 18.7118 0.457231 16.8368 0.366411C15.2196 0.275591 13.6171 0.290239 12.0028 0.290239C10.3856 0.290239 8.7831 0.275591 7.16884 0.366411C5.29384 0.457231 3.62978 0.884965 2.25868 2.25606C0.88466 3.63008 0.459856 5.29121 0.369035 7.16621C0.278215 8.7834 0.292864 10.3859 0.292864 12.0002C0.292864 13.6145 0.278215 15.2199 0.369035 16.8342C0.459856 18.7092 0.88759 20.3732 2.25868 21.7443C3.63271 23.1184 5.29384 23.5432 7.16884 23.634C8.78603 23.7248 10.3886 23.7102 12.0028 23.7102C13.62 23.7102 15.2226 23.7248 16.8368 23.634C18.7118 23.5432 20.3759 23.1154 21.747 21.7443C23.121 20.3703 23.5458 18.7092 23.6366 16.8342C23.7304 15.2199 23.7128 13.6174 23.7128 12.0002ZM11.9999 18.009C8.6747 18.009 5.99111 15.3254 5.99111 12.0002C5.99111 8.675 8.6747 5.99141 11.9999 5.99141C15.3251 5.99141 18.0087 8.675 18.0087 12.0002C18.0087 15.3254 15.3251 18.009 11.9999 18.009ZM18.2548 7.14864C17.4784 7.14864 16.8515 6.52168 16.8515 5.74532C16.8515 4.96895 17.4784 4.342 18.2548 4.342C19.0311 4.342 19.6581 4.96895 19.6581 5.74532C19.6583 5.92967 19.6222 6.11225 19.5517 6.28262C19.4813 6.45298 19.3779 6.60777 19.2476 6.73813C19.1172 6.86849 18.9624 6.97185 18.7921 7.04229C18.6217 7.11273 18.4391 7.14887 18.2548 7.14864Z" fill="url(#paint0_linear_4352_450)"/>
<defs>
<linearGradient id="paint0_linear_4352_450" x1="1.59503" y1="-8.28949" x2="24.6794" y2="-7.72294" gradientUnits="userSpaceOnUse">
<stop stop-color="#70FCEB"/>
<stop offset="0.483161" stop-color="#9BB8FF"/>
<stop offset="0.901042" stop-color="#B794FF"/>
</linearGradient>
</defs>
</svg>
