<svg width="26" height="25" viewBox="0 0 26 25" fill="none" xmlns="http://www.w3.org/2000/svg">
<path d="M6.2345 24.5H1.15513V8.14275H6.2345V24.5ZM3.69175 5.9115C2.06775 5.9115 0.75 4.56575 0.75 2.94175C0.75 2.16155 1.05993 1.4133 1.61162 0.861619C2.1633 0.309934 2.91155 0 3.69175 0C4.47195 0 5.2202 0.309934 5.77188 0.861619C6.32357 1.4133 6.6335 2.16155 6.6335 2.94175C6.6335 4.56575 5.31575 5.9115 3.69175 5.9115ZM25.2448 24.5H20.1768V16.5375C20.1768 14.6396 20.1383 12.2063 17.536 12.2063C14.8953 12.2063 14.4901 14.2677 14.4901 16.401V24.5H9.416V8.14275H14.2871V10.374H14.358C15.0361 9.08862 16.6925 7.73238 19.1635 7.73238C24.3041 7.73238 25.2491 11.1178 25.2491 15.5146V24.5H25.2448Z" fill="url(#paint0_linear_4352_433)"/>
<defs>
<linearGradient id="paint0_linear_4352_433" x1="2.11296" y1="-8.97383" x2="26.2588" y2="-8.38126" gradientUnits="userSpaceOnUse">
<stop stop-color="#70FCEB"/>
<stop offset="0.483161" stop-color="#9BB8FF"/>
<stop offset="0.901042" stop-color="#B794FF"/>
</linearGradient>
</defs>
</svg>
