<svg width="24" height="24" viewBox="0 0 24 24" fill="none" xmlns="http://www.w3.org/2000/svg">
<path d="M12.0009 8.09487C9.85048 8.09487 8.0956 9.84975 8.0956 12.0001C8.0956 14.1505 9.85048 15.9054 12.0009 15.9054C14.1513 15.9054 15.9061 14.1505 15.9061 12.0001C15.9061 9.84975 14.1513 8.09487 12.0009 8.09487ZM23.7138 12.0001C23.7138 10.383 23.7284 8.78041 23.6376 7.16615C23.5468 5.29115 23.119 3.62709 21.7479 2.256C20.3739 0.881975 18.7128 0.45717 16.8378 0.36635C15.2206 0.27553 13.6181 0.290178 12.0038 0.290178C10.3866 0.290178 8.78407 0.27553 7.16982 0.36635C5.29482 0.45717 3.63075 0.884904 2.25966 2.256C0.885637 3.63002 0.460832 5.29115 0.370012 7.16615C0.279192 8.78334 0.29384 10.3859 0.29384 12.0001C0.29384 13.6144 0.279192 15.2199 0.370012 16.8341C0.460832 18.7091 0.888567 20.3732 2.25966 21.7443C3.63368 23.1183 5.29482 23.5431 7.16982 23.6339C8.78701 23.7247 10.3895 23.7101 12.0038 23.7101C13.621 23.7101 15.2235 23.7247 16.8378 23.6339C18.7128 23.5431 20.3769 23.1154 21.7479 21.7443C23.122 20.3703 23.5468 18.7091 23.6376 16.8341C23.7313 15.2199 23.7138 13.6173 23.7138 12.0001ZM12.0009 18.0089C8.67568 18.0089 5.99208 15.3253 5.99208 12.0001C5.99208 8.67494 8.67568 5.99135 12.0009 5.99135C15.3261 5.99135 18.0097 8.67494 18.0097 12.0001C18.0097 15.3253 15.3261 18.0089 12.0009 18.0089ZM18.2558 7.14858C17.4794 7.14858 16.8524 6.52162 16.8524 5.74526C16.8524 4.96889 17.4794 4.34194 18.2558 4.34194C19.0321 4.34194 19.6591 4.96889 19.6591 5.74526C19.6593 5.92961 19.6232 6.11219 19.5527 6.28256C19.4823 6.45292 19.3789 6.60771 19.2486 6.73807C19.1182 6.86843 18.9634 6.97178 18.7931 7.04223C18.6227 7.11267 18.4401 7.14881 18.2558 7.14858Z" fill="#5D6588"/>
</svg>
